<mxfile host="Electron" modified="2024-04-26T03:14:32.828Z" agent="Mozilla/5.0 (X11; Linux x86_64) AppleWebKit/537.36 (KHTML, like Gecko) draw.io/24.2.5 Chrome/120.0.6099.109 Electron/28.1.0 Safari/537.36" etag="9wOIZQ4r6bb5fkGfqTQd" version="24.2.5" type="device">
  <diagram name="Page-1" id="BiH42gk8LcioDMxBzIxK">
    <mxGraphModel dx="1434" dy="835" grid="1" gridSize="10" guides="1" tooltips="1" connect="1" arrows="1" fold="1" page="1" pageScale="1" pageWidth="850" pageHeight="1100" math="0" shadow="0">
      <root>
        <mxCell id="0" />
        <mxCell id="1" parent="0" />
        <mxCell id="6_L2TqiYfCNutB5mRZmD-29" value="" style="group" parent="1" vertex="1" connectable="0">
          <mxGeometry x="240" y="159" width="160" height="40" as="geometry" />
        </mxCell>
        <mxCell id="6_L2TqiYfCNutB5mRZmD-2" value="1" style="rounded=0;whiteSpace=wrap;html=1;strokeColor=#6c8ebf;strokeWidth=1;fontFamily=Ubuntu;fontSize=16;fillColor=#dae8fc;" parent="6_L2TqiYfCNutB5mRZmD-29" vertex="1">
          <mxGeometry width="40" height="40" as="geometry" />
        </mxCell>
        <mxCell id="6_L2TqiYfCNutB5mRZmD-3" value="2" style="rounded=0;whiteSpace=wrap;html=1;strokeColor=#6c8ebf;strokeWidth=1;fontFamily=Ubuntu;fontSize=16;fillColor=#dae8fc;" parent="6_L2TqiYfCNutB5mRZmD-29" vertex="1">
          <mxGeometry x="40" width="40" height="40" as="geometry" />
        </mxCell>
        <mxCell id="6_L2TqiYfCNutB5mRZmD-4" value="3" style="rounded=0;whiteSpace=wrap;html=1;strokeColor=#6c8ebf;strokeWidth=1;fontFamily=Ubuntu;fontSize=16;fillColor=#dae8fc;" parent="6_L2TqiYfCNutB5mRZmD-29" vertex="1">
          <mxGeometry x="80" width="40" height="40" as="geometry" />
        </mxCell>
        <mxCell id="6_L2TqiYfCNutB5mRZmD-5" value="4" style="rounded=0;whiteSpace=wrap;html=1;strokeColor=#6c8ebf;strokeWidth=1;fontFamily=Ubuntu;fontSize=16;fillColor=#dae8fc;" parent="6_L2TqiYfCNutB5mRZmD-29" vertex="1">
          <mxGeometry x="120" width="40" height="40" as="geometry" />
        </mxCell>
        <mxCell id="6_L2TqiYfCNutB5mRZmD-48" value="&amp;nbsp;%10&amp;nbsp;" style="endArrow=classic;html=1;rounded=1;strokeColor=#6c8ebf;fontFamily=Ubuntu;fontSize=14;fillColor=#dae8fc;strokeWidth=2;" parent="1" edge="1">
          <mxGeometry width="50" height="50" relative="1" as="geometry">
            <mxPoint x="240" y="120" as="sourcePoint" />
            <mxPoint x="640" y="120" as="targetPoint" />
          </mxGeometry>
        </mxCell>
        <mxCell id="6_L2TqiYfCNutB5mRZmD-7" value="1" style="rounded=0;whiteSpace=wrap;html=1;strokeColor=#6c8ebf;strokeWidth=1;fontFamily=Ubuntu;fontSize=16;fillColor=#dae8fc;" parent="1" vertex="1">
          <mxGeometry x="280" y="240" width="40" height="40" as="geometry" />
        </mxCell>
        <mxCell id="6_L2TqiYfCNutB5mRZmD-8" value="2" style="rounded=0;whiteSpace=wrap;html=1;strokeColor=#6c8ebf;strokeWidth=1;fontFamily=Ubuntu;fontSize=16;fillColor=#dae8fc;" parent="1" vertex="1">
          <mxGeometry x="320" y="240" width="40" height="40" as="geometry" />
        </mxCell>
        <mxCell id="6_L2TqiYfCNutB5mRZmD-9" value="3" style="rounded=0;whiteSpace=wrap;html=1;strokeColor=#6c8ebf;strokeWidth=1;fontFamily=Ubuntu;fontSize=16;fillColor=#dae8fc;" parent="1" vertex="1">
          <mxGeometry x="360" y="240" width="40" height="40" as="geometry" />
        </mxCell>
        <mxCell id="6_L2TqiYfCNutB5mRZmD-10" value="4" style="rounded=0;whiteSpace=wrap;html=1;strokeColor=#b85450;strokeWidth=1;fontFamily=Ubuntu;fontSize=16;fillColor=#f8cecc;" parent="1" vertex="1">
          <mxGeometry x="480" y="200" width="40" height="40" as="geometry" />
        </mxCell>
        <mxCell id="6_L2TqiYfCNutB5mRZmD-11" value="1" style="rounded=0;whiteSpace=wrap;html=1;strokeColor=#6c8ebf;strokeWidth=1;fontFamily=Ubuntu;fontSize=16;fillColor=#dae8fc;" parent="1" vertex="1">
          <mxGeometry x="320" y="320" width="40" height="40" as="geometry" />
        </mxCell>
        <mxCell id="6_L2TqiYfCNutB5mRZmD-12" value="2" style="rounded=0;whiteSpace=wrap;html=1;strokeColor=#6c8ebf;strokeWidth=1;fontFamily=Ubuntu;fontSize=16;fillColor=#dae8fc;" parent="1" vertex="1">
          <mxGeometry x="360" y="320" width="40" height="40" as="geometry" />
        </mxCell>
        <mxCell id="7y_TNwNH5c61icQ43MN7-1" value="4" style="rounded=0;whiteSpace=wrap;html=1;strokeColor=#82b366;strokeWidth=1;fontFamily=Ubuntu;fontSize=16;fillColor=#d5e8d4;" parent="1" vertex="1">
          <mxGeometry x="480" y="280" width="40" height="40" as="geometry" />
        </mxCell>
        <mxCell id="6_L2TqiYfCNutB5mRZmD-13" value="3" style="rounded=0;whiteSpace=wrap;html=1;strokeColor=#b85450;strokeWidth=1;fontFamily=Ubuntu;fontSize=16;fillColor=#f8cecc;" parent="1" vertex="1">
          <mxGeometry x="520" y="280" width="40" height="40" as="geometry" />
        </mxCell>
        <mxCell id="6_L2TqiYfCNutB5mRZmD-15" value="1" style="rounded=0;whiteSpace=wrap;html=1;strokeColor=#6c8ebf;strokeWidth=1;fontFamily=Ubuntu;fontSize=16;fillColor=#dae8fc;" parent="1" vertex="1">
          <mxGeometry x="360" y="400" width="40" height="40" as="geometry" />
        </mxCell>
        <mxCell id="7y_TNwNH5c61icQ43MN7-2" value="4" style="rounded=0;whiteSpace=wrap;html=1;strokeColor=#82b366;strokeWidth=1;fontFamily=Ubuntu;fontSize=16;fillColor=#d5e8d4;" parent="1" vertex="1">
          <mxGeometry x="480" y="360" width="40" height="40" as="geometry" />
        </mxCell>
        <mxCell id="7y_TNwNH5c61icQ43MN7-3" value="3" style="rounded=0;whiteSpace=wrap;html=1;strokeColor=#82b366;strokeWidth=1;fontFamily=Ubuntu;fontSize=16;fillColor=#d5e8d4;" parent="1" vertex="1">
          <mxGeometry x="520" y="360" width="40" height="40" as="geometry" />
        </mxCell>
        <mxCell id="6_L2TqiYfCNutB5mRZmD-16" value="2" style="rounded=0;whiteSpace=wrap;html=1;strokeColor=#b85450;strokeWidth=1;fontFamily=Ubuntu;fontSize=16;fillColor=#f8cecc;" parent="1" vertex="1">
          <mxGeometry x="560" y="360" width="40" height="40" as="geometry" />
        </mxCell>
        <mxCell id="7y_TNwNH5c61icQ43MN7-4" value="4" style="rounded=0;whiteSpace=wrap;html=1;strokeColor=#82b366;strokeWidth=1;fontFamily=Ubuntu;fontSize=16;fillColor=#d5e8d4;" parent="1" vertex="1">
          <mxGeometry x="480" y="440" width="40" height="40" as="geometry" />
        </mxCell>
        <mxCell id="7y_TNwNH5c61icQ43MN7-5" value="3" style="rounded=0;whiteSpace=wrap;html=1;strokeColor=#82b366;strokeWidth=1;fontFamily=Ubuntu;fontSize=16;fillColor=#d5e8d4;" parent="1" vertex="1">
          <mxGeometry x="520" y="440" width="40" height="40" as="geometry" />
        </mxCell>
        <mxCell id="7y_TNwNH5c61icQ43MN7-6" value="2" style="rounded=0;whiteSpace=wrap;html=1;strokeColor=#82b366;strokeWidth=1;fontFamily=Ubuntu;fontSize=16;fillColor=#d5e8d4;" parent="1" vertex="1">
          <mxGeometry x="560" y="440" width="40" height="40" as="geometry" />
        </mxCell>
        <mxCell id="6_L2TqiYfCNutB5mRZmD-18" value="1" style="rounded=0;whiteSpace=wrap;html=1;strokeColor=#b85450;strokeWidth=1;fontFamily=Ubuntu;fontSize=16;fillColor=#f8cecc;" parent="1" vertex="1">
          <mxGeometry x="600" y="440" width="40" height="40" as="geometry" />
        </mxCell>
      </root>
    </mxGraphModel>
  </diagram>
</mxfile>
